<?xml version="1.0" standalone="no"?>
<!DOCTYPE svg PUBLIC "-//W3C//DTD SVG 20010904//EN"
 "http://www.w3.org/TR/2001/REC-SVG-20010904/DTD/svg10.dtd">
<svg version="1.0" xmlns="http://www.w3.org/2000/svg"
 width="980.000000pt" height="980.000000pt" viewBox="0 0 980.000000 980.000000"
 preserveAspectRatio="xMidYMid meet">
<metadata>
Created by potrace 1.14, written by Peter Selinger 2001-2017
</metadata>
<g transform="translate(0.000000,980.000000) scale(0.100000,-0.100000)"
fill="#000000" stroke="none">
<path d="M3410 8094 c-348 -40 -534 -91 -782 -215 -206 -103 -344 -202 -498
-358 -118 -120 -194 -221 -286 -383 -84 -147 -207 -439 -191 -454 4 -4 969
-411 1054 -444 20 -8 23 -4 43 63 83 274 257 493 476 599 122 59 245 81 414
75 156 -6 222 -21 337 -77 157 -77 272 -220 319 -395 22 -84 30 -346 14 -471
-52 -416 -297 -635 -827 -738 -137 -27 -386 -56 -477 -56 -30 0 -61 -3 -70 -6
-14 -6 -16 -75 -16 -680 l0 -674 620 0 620 0 0 315 c0 244 3 316 13 319 6 2
68 17 137 33 499 120 916 412 1152 808 169 283 248 579 248 925 0 347 -90 679
-260 955 -272 443 -772 743 -1400 840 -100 16 -553 29 -640 19z"/>
<path d="M6680 7133 l1 -868 207 -1250 207 -1250 283 -3 c222 -2 282 0 282 10
0 7 90 569 200 1248 l200 1234 0 873 0 873 -690 0 -690 0 0 -867z"/>
<path d="M3373 3259 c-252 -32 -424 -140 -520 -324 -71 -137 -78 -177 -78
-445 0 -258 8 -306 65 -422 90 -180 205 -272 409 -325 78 -20 129 -26 266 -30
188 -6 302 8 427 51 174 61 310 206 375 401 27 78 27 87 28 320 0 238 0 241
-29 329 -52 158 -167 301 -294 365 -151 76 -422 110 -649 80z"/>
<path d="M7172 3260 c-353 -50 -551 -243 -593 -580 -18 -147 -6 -405 23 -505
68 -232 219 -376 458 -435 120 -30 387 -38 523 -16 277 46 447 183 533 431 27
76 28 90 32 303 5 259 -5 325 -68 450 -94 187 -232 290 -455 339 -82 18 -361
26 -453 13z"/>
</g>
</svg>
